<svg xmlns="http://www.w3.org/2000/svg" viewBox="0 0 128 128" fill="none">
  <defs>
    <linearGradient id="gradient" x1="0%" y1="0%" x2="100%" y2="100%">
      <stop offset="0%" style="stop-color:#1e3a8a;stop-opacity:1" />
      <stop offset="100%" style="stop-color:#5ebbaa;stop-opacity:1" />
    </linearGradient>
  </defs>
  
  <!-- Speech bubble -->
  <path d="M 24 32 C 24 22 32 14 42 14 L 86 14 C 96 14 104 22 104 32 L 104 64 C 104 74 96 82 86 82 L 52 82 L 32 98 L 32 82 C 27 82 24 78 24 74 Z" fill="url(#gradient)" opacity="0.9"/>
  
  <!-- Sound waves -->
  <g stroke="url(#gradient)" stroke-width="4" fill="none" stroke-linecap="round">
    <path d="M 48 38 Q 54 44 48 50" opacity="0.9"/>
    <path d="M 58 38 Q 64 44 58 50" opacity="0.9"/>
    <path d="M 68 38 Q 74 44 68 50" opacity="0.9"/>
    
    <path d="M 48 56 Q 54 62 48 68" opacity="0.9"/>
    <path d="M 58 56 Q 64 62 58 68" opacity="0.9"/>
    <path d="M 68 56 Q 74 62 68 68" opacity="0.9"/>
  </g>
  
  <style>
    @media (prefers-color-scheme: dark) {
      path, g { 
        filter: brightness(1.2);
      }
    }
  </style>
</svg>
